<svg preserveAspectRatio="none" overflow="visible" style="display: block;" width="9.43341" height="14.8125" viewBox="0 0 9.43341 14.8125" fill="none" xmlns="http://www.w3.org/2000/svg">
<g id="Group">
<path id="Vector" fill-rule="evenodd" clip-rule="evenodd" d="M9.38151 9.75C8.79786 11.7497 7.7239 13.4372 6.15962 14.8125C2.94378 12.5938 0.991114 9.59381 0.301629 5.8125C0.0663334 4.38394 -0.0312997 2.94637 0.00872986 1.5C0.244026 0.987375 0.536925 0.487312 0.887428 0C0.0208363 5.14575 1.48533 9.552 5.28092 13.2187C5.47619 13.3438 5.67145 13.3438 5.86672 13.2187C6.99985 11.8192 7.87855 10.2879 8.50281 8.625C8.92478 6.98737 8.89217 5.36231 8.40518 3.75C8.4702 3.68756 8.53542 3.62494 8.60045 3.5625C9.29442 5.5695 9.55471 7.632 9.38151 9.75Z" fill="#615D59"/>
</g>
</svg>
