<svg width="132" height="153" viewBox="0 0 132 153" fill="none" xmlns="http://www.w3.org/2000/svg">
<path fill-rule="evenodd" clip-rule="evenodd" d="M54.5769 25.9687C54.3166 25.9687 54.0562 25.9687 53.7959 25.9687C52.3448 22.717 50.327 19.8108 47.7426 17.2499C47.3593 17.0916 47.099 17.1854 46.9615 17.5312C46.3139 16.7532 45.5654 16.0657 44.716 15.4687C44.4698 15.5173 44.2745 15.6423 44.1302 15.8437C42.8016 19.3475 42.0205 22.9724 41.787 26.7187C41.6263 29.4119 41.6915 32.0994 41.9823 34.7812C42.0742 35.1085 42.2045 35.4211 42.3728 35.7187C42.7159 35.8347 42.9438 36.0535 43.0562 36.3749C42.76 37.3891 42.4345 38.389 42.0799 39.3749C41.8879 39.4857 41.7577 39.4231 41.6894 39.1874C40.7394 37.1268 40.1862 34.9705 40.0296 32.7187C39.84 28.8339 39.9376 24.9588 40.3225 21.0937C40.9487 17.8818 41.9577 14.7568 43.3491 11.7187C43.554 11.528 43.7818 11.4967 44.0326 11.6249C48.3466 15.5071 51.829 19.976 54.4793 25.0312C54.5758 25.3375 54.6082 25.6501 54.5769 25.9687Z" fill="#292628"/>
<path fill-rule="evenodd" clip-rule="evenodd" d="M97.926 21.6562C98.5761 26.6235 98.4134 31.5611 97.4379 36.4688C97.1348 37.4363 96.7769 38.3738 96.3639 39.2812C95.9568 38.3282 95.5662 37.3596 95.1923 36.375C95.4087 35.979 95.7016 35.6351 96.071 35.3438C96.9544 28.7829 96.3686 22.3455 94.3136 16.0312C93.9606 15.6758 93.5374 15.582 93.0444 15.75C92.3678 16.2117 91.7496 16.743 91.1894 17.3438C88.9965 19.8549 87.0763 22.5424 85.429 25.4062C85.3314 25.4687 85.2337 25.5313 85.1361 25.5938C84.489 25.4471 83.8708 25.2596 83.2811 25.0312C83.7189 24.0021 84.3047 23.0646 85.0385 22.2188C87.6953 18.2539 90.8195 14.6289 94.4112 11.3438C94.7988 11.7106 95.0917 12.1481 95.2899 12.6562C96.4752 15.5984 97.3539 18.5984 97.926 21.6562Z" fill="#292627"/>
<path fill-rule="evenodd" clip-rule="evenodd" d="M99.6834 34.7814C99.7161 30.3434 99.6834 25.9059 99.5858 21.4689C99.4546 20.807 99.0316 20.5571 98.3166 20.7189C98.281 21.7115 98.1834 21.7115 98.0237 20.7189C97.9272 21.0252 97.8948 21.3378 97.926 21.6564C97.3539 18.5985 96.4752 15.5985 95.29 12.6564C95.0918 12.1482 94.7989 11.7107 94.4113 11.3439C90.8195 14.629 87.6953 18.254 85.0385 22.2189C84.8981 21.7944 84.8331 21.3569 84.8432 20.9064C84.4941 20.8529 84.1686 20.9154 83.8669 21.0939C83.6066 21.2814 83.6066 21.4689 83.8669 21.6564C83.7624 21.9884 83.5996 22.0509 83.3787 21.8439C83.2844 22.0216 83.252 22.2091 83.2811 22.4064C82.2372 22.5177 81.1956 22.6428 80.1568 22.7814C80.1305 23.1665 80.2607 23.4791 80.5474 23.7189C79.9391 23.7997 79.4833 24.1122 79.1805 24.6564C79.0362 24.6809 78.9059 24.6496 78.79 24.5626C78.9702 24.1799 79.0352 23.7736 78.9852 23.3439C78.79 23.3439 78.5947 23.3439 78.3994 23.3439C79.7936 22.6494 81.2907 22.2119 82.8905 22.0314C77.3819 21.1814 72.5002 22.4628 68.2456 25.8751C68.0605 25.9657 67.8652 25.9968 67.6598 25.9689C67.9869 22.5526 69.0934 19.4902 70.9793 16.7814C69.4312 17.9878 68.2922 19.4877 67.5621 21.2814C66.8244 23.3647 66.2712 25.4896 65.9024 27.6564C64.1053 24.5868 61.5343 22.3368 58.1894 20.9064C58.0917 20.9377 57.9941 20.9688 57.8965 21.0001C60.0001 23.0529 61.497 25.4591 62.3876 28.2189C62.29 28.2813 62.1923 28.3439 62.0947 28.4064C59.548 27.9444 56.977 27.7569 54.3817 27.8439C54.5602 27.2386 54.6252 26.6137 54.5769 25.9689C54.6082 25.6503 54.5758 25.3377 54.4793 25.0314C51.829 19.9762 48.3466 15.5073 44.0326 11.6251C43.7818 11.4969 43.554 11.5282 43.3491 11.7189C41.9577 14.757 40.9487 17.882 40.3225 21.0939C40.0359 20.6409 39.9056 20.1408 39.932 19.5939C39.6065 19.5939 39.2812 19.5939 38.9556 19.5939C38.645 22.6458 38.4821 25.7082 38.4675 28.7814C38.1675 29.5025 38.0049 30.2525 37.9793 31.0314C37.4788 24.9476 38.2925 19.0102 40.4201 13.2189C41.0569 11.6519 41.8704 10.1832 42.861 8.81262C43.3435 8.68019 43.7992 8.74268 44.2278 9.00012C48.4305 12.7825 52.043 17.0012 55.0651 21.6564C55.8819 23.0688 56.5653 24.5375 57.1154 26.0626C57.9045 26.2177 58.6855 26.1864 59.4586 25.9689C58.3469 23.7429 56.8174 21.8054 54.8698 20.1564C54.7248 19.7924 54.7574 19.4487 54.9675 19.1251C58.8923 19.3844 62.1468 20.9471 64.7308 23.8126C64.9159 23.9032 65.1112 23.9343 65.3166 23.9064C65.9744 19.3049 68.5129 16.0236 72.932 14.0626C73.8234 13.7542 74.7345 13.6292 75.6657 13.6876C75.833 13.8168 75.9631 13.9731 76.0562 14.1564C74.4955 15.2489 73.1612 16.5614 72.0533 18.0939C71.1064 19.5372 70.488 21.0997 70.1982 22.7814C72.1726 21.8036 74.2553 21.0849 76.4468 20.6251C77.3194 20.4787 78.1981 20.3849 79.0829 20.3439C80.6754 20.5173 82.2702 20.5486 83.8669 20.4376C86.8117 16.1637 90.2613 12.2887 94.216 8.81262C95.1181 8.52424 95.7365 8.80549 96.071 9.65637C99.9568 17.6879 101.161 26.063 99.6834 34.7814Z" fill="#0D0C11"/>
<path fill-rule="evenodd" clip-rule="evenodd" d="M78.3994 23.3438C76.8793 23.9895 75.5776 24.927 74.4941 26.1562C78.1926 25.8913 81.7727 26.4227 85.2337 27.75C85.494 27.9375 85.494 28.125 85.2337 28.3125C84.0352 29.0573 82.8636 29.8384 81.719 30.6562C81.7516 30.7187 81.784 30.7813 81.8166 30.8438C84.1947 30.888 86.5053 31.2941 88.7485 32.0625C89.5296 32.5626 90.3107 33.0624 91.0917 33.5625C91.7365 34.2105 92.2573 34.9292 92.6539 35.7188C92.6699 36.0473 92.5072 36.2348 92.1657 36.2812C88.2565 32.3261 83.4724 30.8574 77.8136 31.875C79.8409 31.0284 81.6635 29.9034 83.2811 28.5C83.202 28.3228 83.0718 28.1978 82.8906 28.125C79.7073 27.1626 76.453 26.8813 73.1272 27.2812C74.2201 25.3568 75.7823 23.8568 77.8136 22.7812C74.1491 23.4467 70.8946 24.978 68.0503 27.375C67.3651 28.1888 66.6491 28.9701 65.9024 29.7188C64.7247 27.2126 63.065 25.0251 60.9231 23.1562C61.4917 24.2481 62.0775 25.3731 62.6805 26.5312C63.0249 27.456 63.2202 28.3935 63.2663 29.3438C63.1247 29.4486 62.9621 29.511 62.7781 29.5312C60.9991 29.0297 59.1766 28.8422 57.3107 28.9688C57.959 30.1247 58.8701 31.0933 60.0444 31.875C55.6956 31.1383 51.6603 31.8883 47.9379 34.125C47.3267 34.524 46.7735 34.9928 46.2781 35.5312C46.1875 35.4199 46.1549 35.2948 46.1805 35.1562C47.2492 33.2239 48.8765 31.9427 51.0622 31.3125C52.8746 31.0153 54.697 30.7965 56.5296 30.6562C55.324 29.9213 54.1524 29.1399 53.0148 28.3125C53.4462 28.098 53.9019 27.9418 54.3817 27.8438C56.977 27.7568 59.548 27.9443 62.0947 28.4062C62.1923 28.3438 62.29 28.2812 62.3876 28.2188C61.497 25.4589 60.0001 23.0528 57.8965 21C57.9941 20.9687 58.0917 20.9376 58.1894 20.9062C61.5343 22.3367 64.1054 24.5867 65.9024 27.6562C66.2712 25.4895 66.8244 23.3646 67.5622 21.2812C68.2923 19.4876 69.4312 17.9877 70.9793 16.7812C69.0934 19.4901 67.9869 22.5525 67.6598 25.9688C67.8652 25.9967 68.0605 25.9656 68.2456 25.875C72.5002 22.4627 77.3819 21.1813 82.8906 22.0312C81.2907 22.2118 79.7936 22.6493 78.3994 23.3438Z" fill="#62615B"/>
<path fill-rule="evenodd" clip-rule="evenodd" d="M53.7959 25.9688C53.3483 26.0168 52.9252 25.9544 52.5266 25.7813C51.0075 22.7956 49.1524 20.0455 46.9615 17.5313C47.099 17.1856 47.3593 17.0918 47.7426 17.2501C50.327 19.811 52.3448 22.7172 53.7959 25.9688Z" fill="#4C4643"/>
<path fill-rule="evenodd" clip-rule="evenodd" d="M92.6538 35.7187C93.3423 36.6748 93.7002 37.7374 93.7278 38.9062C92.2478 37.1096 90.5229 35.5785 88.5532 34.3125C86.888 33.3489 85.1306 33.0052 83.281 33.2812C82.4699 32.9747 81.754 33.0997 81.1331 33.6562C84.5089 34.2559 87.5681 35.3809 90.3106 37.0312C91.3559 38.1307 92.2998 39.3182 93.142 40.5937C94.5166 43.0151 95.9161 45.4213 97.3402 47.8125C97.0653 47.8716 96.805 47.8091 96.5591 47.625C95.0255 46.4192 93.5286 45.1693 92.068 43.875C91.9055 43.746 91.7755 43.7773 91.6775 43.9687C93.213 46.4119 94.9378 48.7243 96.852 50.9062C97.2008 51.513 97.4937 52.1381 97.7307 52.7812C96.3453 51.1689 94.8482 49.6378 93.2396 48.1875C93.0771 48.0585 92.9471 48.0898 92.8491 48.2812C94.6475 50.7664 96.4701 53.2352 98.3165 55.6875C98.5016 55.7781 98.6969 55.8092 98.9023 55.7812C98.9023 55.5937 98.9023 55.4062 98.9023 55.2187C99.7295 56.7354 100.608 58.2354 101.538 59.7187C101.685 59.9316 101.652 60.1191 101.441 60.2812C100.355 59.7081 99.411 58.9581 98.6094 58.0312C97.6809 56.6857 96.7046 55.3732 95.6804 54.0937C95.5502 54.5312 95.5502 54.9688 95.6804 55.4062C96.382 57.1001 96.7726 58.8501 96.852 60.6562C95.9522 59.1999 94.9433 57.825 93.8254 56.5312C94.1238 56.5281 94.2214 56.403 94.1183 56.1562C92.2851 53.8854 89.9744 52.2292 87.1864 51.1875C86.21 51.0624 85.2337 51.0624 84.2574 51.1875C83.3652 51.6639 83.0723 52.3828 83.3787 53.3437C83.5339 53.7939 83.7618 54.2002 84.0621 54.5625C85.5873 55.0031 87.0518 54.8467 88.4556 54.0937C89.3405 54.4605 90.1866 54.8979 90.994 55.4062C91.0846 55.2949 91.1173 55.1698 91.0917 55.0312C94.9177 58.5036 97.1957 62.7536 97.926 67.7812C97.8934 68.2813 97.861 68.7812 97.8284 69.2812C96.6515 67.3971 95.2846 65.6471 93.7278 64.0312C93.0492 62.6398 92.3334 61.2649 91.5798 59.9062C91.1762 59.4244 90.6881 59.0494 90.1153 58.7812C90.0503 58.8437 89.9851 58.9063 89.9201 58.9687C93.8434 63.8321 94.4944 69.0821 91.8727 74.7187C91.6913 74.988 91.4637 75.2379 91.1893 75.4687C92.7608 66.6832 89.669 59.8395 81.9142 54.9375C76.682 52.1567 71.0843 51.0941 65.1213 51.75C56.1269 53.0764 49.976 57.795 46.6686 65.9062C45.6337 69.3109 45.7963 72.6546 47.1568 75.9375C47.0917 75.9688 47.0265 75.9999 46.9615 76.0312C44.3803 72.2492 43.7619 68.1866 45.1065 63.8437C45.8444 61.9267 46.7881 60.1142 47.9378 58.4062C47.6859 58.236 47.4256 58.2673 47.1568 58.5C45.6407 60.2541 44.5017 62.2228 43.7396 64.4062C42.295 65.8682 41.091 67.4932 40.1272 69.2812C39.8571 67.4184 40.085 65.6061 40.8106 63.8437C42.115 60.459 44.1003 57.5214 46.7662 55.0312C46.778 55.1331 46.843 55.1955 46.9615 55.2187C47.5366 54.8332 48.155 54.5207 48.8165 54.2812C49.655 54.5706 50.5011 54.8205 51.355 55.0312C53.6093 54.8237 54.3904 53.6987 53.6982 51.6562C52.8738 50.9902 51.9301 50.7714 50.8668 51C49.1645 51.5739 47.6024 52.3864 46.1804 53.4375C45.0188 54.5758 43.8798 55.7321 42.7633 56.9062C42.6123 57.2535 42.71 57.5036 43.0562 57.6562C42.1611 58.6867 41.4126 59.8117 40.8106 61.0312C41.0481 58.8924 41.5362 56.7986 42.2751 54.75C42.2101 54.5938 42.1449 54.4374 42.0798 54.2812C40.9633 55.5739 39.9546 56.949 39.0532 58.4062C38.3161 59.0739 37.535 59.6991 36.71 60.2812C39.2358 54.3688 42.5227 48.8689 46.571 43.7812C46.4729 43.5898 46.3429 43.5585 46.1804 43.6875C44.5461 45.1946 42.8539 46.6322 41.1035 48C40.9733 48.1251 40.8432 48.1251 40.713 48C42.4809 45.2248 44.1407 42.381 45.6923 39.4687C46.2843 38.7452 46.9025 38.0576 47.5473 37.4062C48.9714 36.5344 50.4683 35.7531 52.0384 35.0625C53.7628 34.4848 55.5202 34.0474 57.3106 33.75C57.3756 33.6876 57.4409 33.6249 57.5059 33.5625C56.7518 33.1612 55.9707 33.0675 55.1627 33.2812C55.1844 33.1656 55.2494 33.0718 55.358 33C52.3921 32.9856 49.7884 33.9231 47.5473 35.8125C46.5319 36.7247 45.5882 37.6935 44.7159 38.7187C44.6019 38.2018 44.6671 37.7019 44.9112 37.2187C45.342 36.5134 45.7651 35.8258 46.1804 35.1562C46.1549 35.2948 46.1875 35.4199 46.2781 35.5312C46.7735 34.9927 47.3266 34.524 47.9378 34.125C51.6602 31.8883 55.6956 31.1383 60.0443 31.875C58.87 31.0933 57.9589 30.1247 57.3106 28.9687C59.1766 28.8422 60.999 29.0297 62.7781 29.5312C62.962 29.511 63.1247 29.4486 63.2662 29.3437C63.2201 28.3935 63.0249 27.456 62.6804 26.5312C62.0775 25.3731 61.4917 24.2481 60.923 23.1562C63.0649 25.0251 64.7247 27.2126 65.9023 29.7187C66.649 28.9701 67.3651 28.1887 68.0503 27.375C70.8945 24.978 74.149 23.4467 77.8136 22.7812C75.7822 23.8567 74.2201 25.3567 73.1272 27.2812C76.453 26.8813 79.7073 27.1626 82.8905 28.125C83.0717 28.1977 83.2019 28.3228 83.281 28.5C81.6634 29.9034 79.8408 31.0284 77.8136 31.875C83.4724 30.8574 88.2564 32.3261 92.1656 36.2812C92.5072 36.2347 92.6698 36.0472 92.6538 35.7187Z" fill="#3E3C38"/>
<path fill-rule="evenodd" clip-rule="evenodd" d="M83.281 33.2812C86.1477 33.657 88.4909 34.9069 90.3106 37.0312C87.5681 35.3809 84.5089 34.2559 81.1331 33.6562C81.7541 33.0997 82.4699 32.9747 83.281 33.2812Z" fill="#626059"/>
<path fill-rule="evenodd" clip-rule="evenodd" d="M47.5474 37.4064C49.4619 35.0172 52.0004 33.6421 55.1627 33.2814C55.9708 33.0676 56.7518 33.1614 57.5059 33.5626C57.4409 33.625 57.3757 33.6877 57.3107 33.7501C55.5203 34.0475 53.7629 34.4849 52.0385 35.0626C50.4684 35.7532 48.9714 36.5345 47.5474 37.4064Z" fill="#62605B"/>
<path fill-rule="evenodd" clip-rule="evenodd" d="M54.9675 37.0312C56.4427 36.9146 57.7446 37.3209 58.8728 38.25C57.9359 38.1834 56.9922 38.0897 56.0414 37.9687C55.245 38.0036 54.4639 38.1287 53.6982 38.3437C53.5356 38.2813 53.3727 38.2187 53.2101 38.1562C53.7074 37.6374 54.2932 37.2624 54.9675 37.0312Z" fill="#64615D"/>
<path fill-rule="evenodd" clip-rule="evenodd" d="M79.7663 37.0313C81.2772 36.8619 82.5789 37.2681 83.6716 38.25C82.5248 38.2794 81.3856 38.1857 80.2544 37.9688C77.2673 38.6366 77.1046 38.3243 79.7663 37.0313Z" fill="#65625E"/>
<path fill-rule="evenodd" clip-rule="evenodd" d="M79.571 41.1562C81.6348 40.8499 83.0993 41.5999 83.9645 43.4062C84.3425 46.8945 82.7478 48.3007 79.1805 47.625C77.1066 46.1529 76.7484 44.3717 78.1065 42.2812C78.6314 41.9317 79.1196 41.5567 79.571 41.1562Z" fill="#07070E"/>
<path fill-rule="evenodd" clip-rule="evenodd" d="M81.5237 42.0938C82.6929 42.1245 82.9532 42.5933 82.3047 43.5C81.1142 43.5276 80.8539 43.0588 81.5237 42.0938Z" fill="#E9E6EA"/>
<path fill-rule="evenodd" clip-rule="evenodd" d="M66.6834 43.0312C68.5033 42.8775 70.2607 43.0963 71.9556 43.6875C69.2793 43.7638 66.6106 43.8262 63.9497 43.875C64.1114 43.7034 64.3067 43.5785 64.5355 43.5C65.2736 43.3279 65.9895 43.1717 66.6834 43.0312Z" fill="#100D12"/>
<path fill-rule="evenodd" clip-rule="evenodd" d="M55.1627 41.1563C57.8119 40.9857 59.309 42.1418 59.6538 44.6251C59.2563 47.0986 57.7592 48.1612 55.1627 47.8126C53.326 47.129 52.5124 45.8476 52.7219 43.9688C53.0113 42.5984 53.8249 41.6609 55.1627 41.1563Z" fill="#07070E"/>
<path fill-rule="evenodd" clip-rule="evenodd" d="M57.1154 42.0938C58.2846 42.1245 58.5449 42.5933 57.8965 43.5C56.7059 43.5276 56.4456 43.0588 57.1154 42.0938Z" fill="#E7E7EB"/>
<path fill-rule="evenodd" clip-rule="evenodd" d="M66.2929 45.0937C67.9214 45.0626 69.5486 45.0937 71.1745 45.1874C71.3323 45.2452 71.4626 45.3389 71.5651 45.4687C69.0942 45.6873 66.6209 45.7186 64.145 45.5624C64.8614 45.3575 65.5774 45.2013 66.2929 45.0937Z" fill="#0B080D"/>
<path fill-rule="evenodd" clip-rule="evenodd" d="M44.8136 48.4688C45.1119 48.4719 45.2096 48.597 45.1065 48.8437C43.6842 50.7722 42.1873 52.6472 40.6154 54.4687C40.6987 53.7411 40.959 53.0537 41.3964 52.4062C42.5135 51.0546 43.6525 49.7421 44.8136 48.4688Z" fill="#696662"/>
<path fill-rule="evenodd" clip-rule="evenodd" d="M46.7663 55.0312C48.0203 54.083 49.3221 53.1768 50.6716 52.3124C47.4495 53.174 44.9111 54.9552 43.0562 57.6562C42.71 57.5036 42.6124 57.2534 42.7633 56.9062C43.8799 55.7321 45.0188 54.5757 46.1805 53.4374C47.6024 52.3863 49.1645 51.5739 50.8669 50.9999C51.9301 50.7714 52.8738 50.9902 53.6982 51.6562C54.3905 53.6986 53.6094 54.8236 51.355 55.0312C50.5011 54.8204 49.655 54.5705 48.8166 54.2812C48.155 54.5206 47.5366 54.8332 46.9615 55.2187C46.843 55.1954 46.778 55.133 46.7663 55.0312Z" fill="#625F57"/>
<path fill-rule="evenodd" clip-rule="evenodd" d="M93.8254 56.5313C92.0208 54.3874 89.7426 52.9812 86.9911 52.3125C88.3391 53.2664 89.7059 54.1725 91.0917 55.0313C91.1173 55.1699 91.0847 55.2949 90.9941 55.4063C90.1867 54.898 89.3406 54.4605 88.4556 54.0938C87.0519 54.8468 85.5874 55.0032 84.0621 54.5625C83.7618 54.2003 83.5339 53.794 83.3787 53.3438C83.0723 52.3829 83.3652 51.664 84.2574 51.1875C85.2337 51.0625 86.2101 51.0625 87.1864 51.1875C89.9744 52.2293 92.2852 53.8855 94.1184 56.1563C94.2214 56.403 94.1238 56.5281 93.8254 56.5313Z" fill="#615F58"/>
<path fill-rule="evenodd" clip-rule="evenodd" d="M97.7308 52.7812C98.2764 53.5168 98.6669 54.3294 98.9024 55.2187C98.9024 55.4062 98.9024 55.5937 98.9024 55.7812C98.697 55.8092 98.5017 55.778 98.3166 55.6875C96.4701 53.2352 94.6475 50.7664 92.8491 48.2812C92.9471 48.0898 93.0772 48.0585 93.2397 48.1875C94.8483 49.6378 96.3454 51.1689 97.7308 52.7812Z" fill="#5E5B57"/>
<path fill-rule="evenodd" clip-rule="evenodd" d="M97.926 21.6563C97.8948 21.3377 97.9272 21.0252 98.0237 20.7188C98.1834 21.7114 98.281 21.7114 98.3166 20.7188C99.0316 20.557 99.4546 20.8069 99.5858 21.4688C99.6834 25.9058 99.716 30.3434 99.6834 34.7813C99.6741 36.0053 99.4462 37.1929 99 38.3438C98.39 39.7337 97.7066 41.0774 96.9497 42.3751C97.8368 45.1632 99.3013 47.632 101.343 49.7813C101.545 50.2907 101.382 50.6346 100.855 50.8126C100.344 50.797 99.8228 50.7657 99.2929 50.7188C100.538 54.1092 102.197 57.2967 104.272 60.2813C105.03 60.9462 105.714 61.6649 106.322 62.4376C106.172 62.6665 105.976 62.854 105.737 63.0001C103.319 63.2989 101.171 62.7053 99.2929 61.2188C99.2279 61.3439 99.1627 61.4687 99.0976 61.5938C99.4118 62.4451 99.6395 63.3199 99.7811 64.2188C100.118 67.5989 99.793 70.9114 98.8047 74.1563C98.3703 74.8992 97.9147 74.8992 97.4379 74.1563C96.9905 72.5851 96.3721 71.0851 95.5828 69.6563C95.2653 70.9343 94.8748 72.1844 94.4112 73.4063C94.3519 73.2844 94.2869 73.1594 94.216 73.0313C94.3882 72.4142 94.5182 71.7893 94.6065 71.1563C94.2574 71.1029 93.9319 71.1653 93.6302 71.3438C93.5113 72.4609 93.0883 73.5233 92.3609 74.5313C92.2299 74.6723 92.0673 74.7349 91.8728 74.7188C94.4944 69.0822 93.8434 63.8322 89.9201 58.9688C89.9851 58.9064 90.0504 58.8437 90.1154 58.7813C90.6881 59.0494 91.1763 59.4244 91.5799 59.9063C92.3334 61.2649 93.0493 62.6399 93.7278 64.0313C95.2847 65.6472 96.6515 67.3971 97.8284 69.2813C97.861 68.7812 97.8934 68.2814 97.926 67.7813C97.1957 62.7537 94.9178 58.5036 91.0917 55.0313C89.7059 54.1726 88.339 53.2664 86.9911 52.3126C89.7426 52.9812 92.0208 54.3874 93.8254 56.5313C94.9433 57.8251 95.9523 59.2 96.8521 60.6563C96.7726 58.8501 96.3821 57.1002 95.6805 55.4063C95.5502 54.9689 95.5502 54.5312 95.6805 54.0938C96.7046 55.3733 97.681 56.6858 98.6095 58.0313C99.411 58.9581 100.355 59.7081 101.441 60.2813C101.652 60.1191 101.685 59.9316 101.538 59.7188C100.608 58.2355 99.7295 56.7355 98.9024 55.2188C98.6669 54.3295 98.2763 53.5169 97.7308 52.7813C97.4937 52.1382 97.2008 51.5131 96.8521 50.9063C94.9379 48.7244 93.2131 46.4119 91.6775 43.9688C91.7755 43.7774 91.9056 43.7461 92.068 43.8751C93.5286 45.1694 95.0255 46.4192 96.5592 47.6251C96.805 47.8092 97.0653 47.8716 97.3402 47.8126C95.9162 45.4214 94.5167 43.0152 93.142 40.5938C92.2998 39.3182 91.3559 38.1308 90.3106 37.0313C88.491 34.9069 86.1478 33.6571 83.2811 33.2813C85.1306 33.0053 86.888 33.349 88.5533 34.3126C90.5229 35.5786 92.2479 37.1097 93.7278 38.9063C93.7003 37.7374 93.3424 36.6749 92.6538 35.7188C92.2573 34.9292 91.7365 34.2106 91.0917 33.5625C90.3106 33.0625 89.5296 32.5626 88.7485 32.0625C86.5053 31.2942 84.1947 30.8881 81.8166 30.8438C81.784 30.7814 81.7515 30.7187 81.7189 30.6563C82.8636 29.8384 84.0352 29.0573 85.2337 28.3125C85.494 28.125 85.494 27.9375 85.2337 27.75C81.7726 26.4227 78.1926 25.8914 74.4941 26.1563C75.5776 24.927 76.8793 23.9895 78.3994 23.3438C78.5947 23.3438 78.7899 23.3438 78.9852 23.3438C79.0352 23.7736 78.9702 24.1799 78.7899 24.5625C78.9059 24.6495 79.0362 24.6809 79.1805 24.6563C79.728 24.8697 80.3138 24.901 80.9379 24.75C81.5211 24.1486 81.3909 23.8049 80.5473 23.7188C80.2607 23.479 80.1304 23.1664 80.1568 22.7813C81.1956 22.6427 82.2372 22.5177 83.2811 22.4063C83.252 22.209 83.2844 22.0215 83.3787 21.8438C83.5995 22.0508 83.7624 21.9884 83.8669 21.6563C83.6066 21.4688 83.6066 21.2813 83.8669 21.0938C84.1685 20.9153 84.4941 20.8529 84.8432 20.9063C84.833 21.3569 84.8981 21.7943 85.0385 22.2188C84.3046 23.0646 83.7188 24.0021 83.2811 25.0313C83.8708 25.2597 84.489 25.4472 85.1361 25.5938C85.2337 25.5314 85.3314 25.4687 85.429 25.4063C87.0763 22.5424 88.9965 19.855 91.1893 17.3438C91.7496 16.743 92.3678 16.2118 93.0444 15.75C93.5374 15.5821 93.9606 15.6758 94.3136 16.0313C96.3686 22.3455 96.9544 28.783 96.071 35.3438C95.7016 35.6352 95.4087 35.9791 95.1923 36.3751C95.5662 37.3596 95.9568 38.3282 96.3639 39.2813C96.7769 38.3738 97.1348 37.4363 97.4379 36.4688C98.4134 31.5612 98.5761 26.6236 97.926 21.6563Z" fill="#0A090F"/>
<path fill-rule="evenodd" clip-rule="evenodd" d="M80.5473 23.7188C81.3909 23.8048 81.5211 24.1485 80.9379 24.75C80.3138 24.9009 79.728 24.8696 79.1805 24.6563C79.4833 24.1121 79.9391 23.7996 80.5473 23.7188Z" fill="#DDDAE1"/>
<path fill-rule="evenodd" clip-rule="evenodd" d="M92.6539 17.9062C92.8491 17.9062 93.0444 17.9062 93.2397 17.9062C93.8962 20.8134 94.3843 23.751 94.7042 26.7188C94.8631 29.1649 94.8305 31.6024 94.6065 34.0312C94.5085 34.2227 94.3785 34.254 94.216 34.125C92.3524 31.8045 89.9442 30.2732 86.9912 29.5312C86.9621 29.334 86.9945 29.1465 87.0888 28.9688C87.7738 28.6566 88.1967 28.1565 88.358 27.4688C88.3254 27.2812 88.293 27.0938 88.2604 26.9062C87.9349 26.7188 87.6096 26.5312 87.2841 26.3438C87.2206 25.9588 87.2858 25.5838 87.4793 25.2188C88.936 22.6022 90.6608 20.1647 92.6539 17.9062Z" fill="#C9623F"/>
<path fill-rule="evenodd" clip-rule="evenodd" d="M92.2633 21.4688C92.5427 21.5402 92.7054 21.7277 92.7515 22.0312C93.1141 25.0802 93.2769 28.1426 93.2396 31.2188C92.6659 31.0072 92.0801 30.7884 91.4822 30.5625C90.9103 30.0456 90.2595 29.6392 89.5296 29.3438C89.257 29.0903 89.1267 28.7777 89.139 28.4062C89.8006 25.9388 90.842 23.6263 92.2633 21.4688Z" fill="#DB8354"/>
<path fill-rule="evenodd" clip-rule="evenodd" d="M46.9616 17.5312C49.1525 20.0454 51.0075 22.7955 52.5267 25.7812C52.9252 25.9543 53.3483 26.0167 53.7959 25.9687C54.0562 25.9687 54.3167 25.9687 54.577 25.9687C54.6252 26.6136 54.5602 27.2385 54.3817 27.8437C53.9019 27.9418 53.4462 28.098 53.0148 28.3125C54.1524 29.1399 55.324 29.9212 56.5296 30.6562C54.697 30.7965 52.8746 31.0153 51.0622 31.3125C48.8765 31.9427 47.2492 33.2239 46.1805 35.1562C45.7652 35.8258 45.342 36.5134 44.9113 37.2187C44.6672 37.7019 44.602 38.2018 44.716 38.7187C45.5883 37.6935 46.532 36.7247 47.5474 35.8125C49.7884 33.9231 52.3921 32.9856 55.358 33C55.2494 33.0718 55.1844 33.1656 55.1628 33.2812C52.0004 33.642 49.462 35.0171 47.5474 37.4062C46.9026 38.0576 46.2844 38.7452 45.6923 39.4687C44.1407 42.381 42.481 45.2248 40.713 48C40.8433 48.1251 40.9733 48.1251 41.1036 48C42.8539 46.6322 44.5461 45.1946 46.1805 43.6875C46.343 43.5585 46.473 43.5898 46.571 43.7812C42.5228 48.8689 39.2359 54.3688 36.7101 60.2812C37.5351 59.6991 38.3162 59.0739 39.0533 58.4062C39.9546 56.949 40.9634 55.5739 42.0799 54.2812C42.1449 54.4374 42.2102 54.5938 42.2752 54.75C41.5363 56.7986 41.0481 58.8924 40.8107 61.0312C41.4127 59.8117 42.1611 58.6867 43.0562 57.6562C44.9111 54.9553 47.4495 53.1741 50.6716 52.3125C49.3221 53.1769 48.0203 54.0831 46.7663 55.0312C44.1003 57.5214 42.1151 60.459 40.8107 63.8437C40.0851 65.6061 39.8572 67.4184 40.1272 69.2812C41.0911 67.4932 42.2951 65.8682 43.7397 64.4062C44.5018 62.2228 45.6408 60.2541 47.1568 58.5C47.4257 58.2673 47.686 58.236 47.9379 58.4062C46.7882 60.1142 45.8444 61.9267 45.1065 63.8437C43.7619 68.1866 44.3803 72.2492 46.9616 76.0312C47.0266 75.9999 47.0918 75.9688 47.1568 75.9375C45.7964 72.6546 45.6338 69.3109 46.6687 65.9062C49.9761 57.795 56.127 53.0764 65.1213 51.75C71.0844 51.0941 76.6821 52.1567 81.9142 54.9375C89.669 59.8395 92.7609 66.6832 91.1894 75.4687C91.4637 75.2379 91.6914 74.988 91.8728 74.7187C92.0673 74.7349 92.2299 74.6722 92.361 74.5312C93.0883 73.5232 93.5113 72.4609 93.6302 71.3437C93.9319 71.1652 94.2574 71.1028 94.6065 71.1562C94.5183 71.7892 94.3882 72.4142 94.216 73.0312C94.2869 73.1593 94.3519 73.2844 94.4113 73.4062C94.0135 74.7641 93.4277 76.0453 92.6539 77.25C95.4481 82.9764 96.9777 89.0076 97.2426 95.3437C100.351 96.8046 103.02 98.8046 105.249 101.344C106.665 103.5 108.031 105.688 109.349 107.906C109.928 108.65 110.579 109.337 111.302 109.969C111.46 110.359 111.427 110.734 111.204 111.094C110.568 111.266 109.917 111.328 109.252 111.281C109.732 112.635 110.155 114.01 110.521 115.406C110.734 118.189 110.279 120.877 109.154 123.469C108.907 123.899 108.549 124.056 108.08 123.937C107.597 122.327 107.044 120.733 106.42 119.156C106.162 120.003 105.967 120.878 105.834 121.781C105.397 123.221 104.844 124.596 104.175 125.906C108.759 125.408 112.404 126.939 115.109 130.5C115.617 130.421 116.137 130.421 116.672 130.5C116.853 130.724 116.983 130.974 117.062 131.25C115.53 136.034 112.211 138.909 107.104 139.875C104.005 140.445 100.979 140.226 98.0237 139.219C95.7666 141.465 93.0005 142.746 89.7249 143.062C87.0171 143.309 84.3484 143.122 81.719 142.5C78.946 141.619 77.1236 139.837 76.2515 137.156C76.0236 137.094 75.796 137.031 75.5681 136.969C71.3681 137.465 67.1699 137.465 62.9734 136.969C61.3049 140.494 58.4409 142.526 54.3817 143.062C50.0927 143.749 46.1223 142.999 42.4704 140.812C41.8196 140.437 41.2988 139.937 40.9083 139.312C39.9822 139.347 39.0709 139.503 38.1746 139.781C36.4227 139.94 34.6653 140.002 32.9024 139.969C28.785 139.729 25.6283 137.979 23.432 134.719C22.8977 133.523 22.3443 132.336 21.7722 131.156C22.2428 130.435 22.8936 130.216 23.7249 130.5C25.5551 127.777 28.1586 126.246 31.5355 125.906C32.7144 125.968 33.886 125.905 35.0503 125.719C35.0261 125.605 34.9611 125.542 34.8551 125.531C33.6682 123.55 32.9524 121.425 32.7071 119.156C32.5119 119.156 32.3166 119.156 32.1213 119.156C31.7527 120.71 31.4598 122.273 31.2426 123.844C30.9716 124.041 30.6787 124.072 30.3639 123.937C28.8992 121.747 28.2482 119.341 28.4113 116.719C28.4087 115.708 28.5064 114.708 28.7042 113.719C29.1101 112.94 29.403 112.128 29.5829 111.281C28.8393 111.344 28.1234 111.251 27.4349 111C27.2291 110.74 27.1967 110.458 27.3373 110.156C27.9954 109.587 28.5812 108.962 29.0947 108.281C30.4092 106.33 31.6459 104.33 32.8048 102.281C35.0952 99.1114 38.0566 96.7363 41.6894 95.1562C42.0112 89.1707 43.378 83.4206 45.79 77.9062C43.8824 75.3981 42.776 72.5856 42.4704 69.4687C42.1254 69.9217 41.8325 70.4218 41.5917 70.9687C40.5316 75.9624 39.4903 75.9624 38.4675 70.9687C38.0252 67.7632 38.1228 64.5757 38.7604 61.4062C37.8381 61.7548 36.9268 62.1611 36.0267 62.625C34.8191 63.0315 33.5825 63.1566 32.3166 63C32.1069 62.8614 31.9766 62.6739 31.9261 62.4375C33.1369 61.0869 34.2761 59.6807 35.3432 58.2187C36.7077 55.7857 37.912 53.2858 38.9556 50.7187C38.3712 50.8378 37.7854 50.8689 37.1983 50.8125C36.828 50.4735 36.7304 50.0672 36.9054 49.5937C38.943 47.5266 40.4075 45.1202 41.2988 42.375C39.1078 38.9046 38.0014 35.1232 37.9793 31.0312C38.0049 30.2524 38.1676 29.5024 38.4675 28.7812C38.4821 25.7081 38.645 22.6457 38.9556 19.5937C39.2812 19.5937 39.6065 19.5937 39.932 19.5937C39.9056 20.1407 40.0359 20.6407 40.3225 21.0937C39.9376 24.9589 39.84 28.8339 40.0296 32.7187C40.1862 34.9706 40.7394 37.1269 41.6894 39.1875C41.7577 39.4232 41.888 39.4858 42.0799 39.375C42.4345 38.3891 42.76 37.3892 43.0562 36.375C42.9438 36.0536 42.7159 35.8348 42.3728 35.7187C42.2045 35.4212 42.0742 35.1086 41.9823 34.7812C41.6915 32.0994 41.6263 29.412 41.787 26.7187C42.0205 22.9725 42.8016 19.3476 44.1302 15.8437C44.2745 15.6423 44.4698 15.5173 44.716 15.4688C45.5654 16.0658 46.3139 16.7533 46.9616 17.5312Z" fill="#09080F"/>
<path fill-rule="evenodd" clip-rule="evenodd" d="M93.2397 84.0938C95.2679 90.5934 95.6584 97.1559 94.4113 103.781C94.8545 98.1803 94.3013 92.6803 92.7515 87.2812C92.5697 86.9139 92.407 86.5389 92.2633 86.1562C92.0681 85.9063 91.8728 85.9063 91.6775 86.1562C91.2669 86.6509 91.0064 87.2134 90.8965 87.8438C91.84 90.2171 92.5234 92.6546 92.9468 95.1562C93.234 97.0862 93.299 99.0238 93.142 100.969C92.0362 98.6546 90.4741 96.6547 88.4556 94.9688C89.019 96.4078 89.4747 97.9078 89.8225 99.4688C89.9527 101.344 89.9527 103.219 89.8225 105.094C89.7994 105.632 89.6694 106.132 89.432 106.594C89.1863 104.044 88.4053 101.669 87.0888 99.4688C86.863 99.1888 86.7002 99.2201 86.6006 99.5625C88.2707 102.861 88.5962 106.267 87.5769 109.781C87.6738 107.584 87.023 105.646 85.6243 103.969C85.6192 102.304 85.3587 100.679 84.8432 99.0938C84.7538 102.285 84.2656 105.41 83.3787 108.469C83.0762 109.311 82.7181 110.123 82.3047 110.906C82.0249 109.344 81.5368 107.844 80.8402 106.406C80.6428 106.249 80.415 106.187 80.1568 106.219C80.1568 106.406 80.1568 106.594 80.1568 106.781C79.8049 105.874 79.4796 104.937 79.1805 103.969C78.8864 103.735 78.5935 103.735 78.3018 103.969C78.3071 107.947 77.3957 111.697 75.5681 115.219C75.1719 115.693 74.8139 116.193 74.4941 116.719C74.4291 116.687 74.3638 116.656 74.2988 116.625C76.2117 113.698 76.765 110.542 75.9586 107.156C75.661 106.147 75.2052 105.21 74.5917 104.344C74.4543 106.531 74.3242 108.718 74.2012 110.906C74.0165 111.714 73.7236 112.464 73.3225 113.156C73.4957 111.038 73.2354 108.976 72.5414 106.969C72.4764 107.031 72.4112 107.094 72.3462 107.156C72.8332 108.769 72.8658 110.394 72.4438 112.031C71.8195 113.694 70.9408 115.226 69.8077 116.625C69.6124 116.75 69.4172 116.75 69.2219 116.625C65.4263 112.958 63.9618 108.552 64.8284 103.406C64.4779 103.894 64.185 104.394 63.9497 104.906C63.8821 104.493 63.7519 104.462 63.5592 104.812C62.4881 108.043 62.5208 111.262 63.6568 114.469C63.9003 114.999 64.1932 115.499 64.5355 115.969C64.4705 116.031 64.4053 116.094 64.3402 116.156C62.5764 113.919 61.4374 111.419 60.9231 108.656C60.7848 107.087 60.5896 105.524 60.3373 103.969C60.0456 103.735 59.7527 103.735 59.4586 103.969C59.2951 104.533 59.0349 105.033 58.6775 105.469C58.6834 105.282 58.5857 105.157 58.3846 105.094C58.079 105.366 57.8187 105.679 57.6036 106.031C57.0547 107.27 56.5665 108.52 56.1391 109.781C55.0542 107.929 54.3707 105.929 54.0888 103.781C54.0107 102.133 53.9782 100.508 53.9911 98.9062C53.2977 100.59 53.0374 102.34 53.2101 104.156C53.0498 103.567 52.9521 102.942 52.9172 102.281C51.6106 104.144 51.0574 106.206 51.2574 108.469C51.0319 107.19 50.9995 105.877 51.1598 104.531C51.3228 103.631 51.5181 102.756 51.7456 101.906C50.2326 104.263 49.6795 106.825 50.0858 109.594C47.7375 106.753 47.0867 103.566 48.1331 100.031C47.588 100.022 47.23 100.272 47.0592 100.781C46.5263 101.679 46.1032 102.617 45.7899 103.594C45.5656 103.539 45.4353 103.383 45.3994 103.125C45.9505 100.165 46.6989 97.2585 47.645 94.4062C47.7207 94.2323 47.851 94.1072 48.0355 94.0312C52.7977 96.9928 58.0372 98.6492 63.7544 99C65.9674 99.1251 68.1805 99.1251 70.3935 99C76.3396 98.5271 81.7418 96.6521 86.6006 93.375C88.4338 91.6995 89.6378 89.6683 90.213 87.2812C90.8031 85.8101 91.8119 84.7477 93.2397 84.0938Z" fill="#3F3C38"/>
<path fill-rule="evenodd" clip-rule="evenodd" d="M94.4112 103.781C94.4542 104.325 94.3241 104.825 94.0207 105.281C93.3199 103.353 92.3436 101.572 91.0917 99.9375C90.8392 99.8456 90.5787 99.8143 90.3106 99.8437C91.1349 103.748 90.4514 107.373 88.2603 110.719C88.1258 110.879 87.9632 111.004 87.7722 111.094C87.582 110.673 87.5168 110.236 87.5769 109.781C88.5962 106.267 88.2707 102.861 86.6006 99.5625C86.7002 99.2201 86.863 99.1888 87.0888 99.4687C88.4052 101.669 89.1863 104.044 89.4319 106.594C89.6694 106.132 89.7994 105.632 89.8225 105.094C89.9527 103.219 89.9527 101.344 89.8225 99.4687C89.4747 97.9078 89.019 96.4078 88.4556 94.9687C90.4741 96.6547 92.0362 98.6546 93.142 100.969C93.299 99.0238 93.234 97.0861 92.9467 95.1562C92.5234 92.6546 91.84 90.2171 90.8964 87.8437C91.0064 87.2133 91.2669 86.6508 91.6775 86.1562C91.8728 85.9063 92.068 85.9063 92.2633 86.1562C92.407 86.5389 92.5697 86.9139 92.7515 87.2812C94.3013 92.6803 94.8545 98.1802 94.4112 103.781Z" fill="#625F5A"/>
<path fill-rule="evenodd" clip-rule="evenodd" d="M93.2396 84.0936C91.8119 84.7476 90.8031 85.81 90.213 87.2811C89.6378 89.6682 88.4337 91.6994 86.6006 93.3749C81.7418 96.652 76.3395 98.527 70.3935 98.9999C68.1805 99.125 65.9674 99.125 63.7544 98.9999C58.0372 98.6491 52.7976 96.9927 48.0355 94.0311C47.851 94.1071 47.7207 94.2321 47.645 94.4061C46.6989 97.2584 45.9504 100.165 45.3994 103.125C45.4353 103.383 45.5656 103.539 45.7899 103.594C45.5652 104.151 45.3375 104.714 45.1065 105.281C43.3743 98.587 43.4393 91.8996 45.3018 85.2186C45.5037 84.565 45.764 83.9401 46.0828 83.3436C50.4586 89.3686 56.4794 92.7749 64.145 93.5624C64.3967 93.9003 64.7222 94.1191 65.1213 94.2186C65.0586 94.5089 64.8633 94.634 64.5355 94.5936C64.4873 95.1571 64.6825 95.6258 65.1213 95.9999C66.1626 96.0312 67.2042 96.0623 68.2456 96.0936C69.4377 96.1169 70.6093 96.0231 71.7603 95.8124C72.3426 95.1421 72.2126 94.6733 71.3698 94.4061C71.6733 94.1825 71.9988 93.9636 72.3461 93.7499C78.7048 92.9671 84.3023 90.592 89.139 86.6249C90.3862 85.4898 91.4928 84.2397 92.4586 82.8749C92.6505 82.7641 92.7808 82.8267 92.8491 83.0624C92.9618 83.4186 93.092 83.7623 93.2396 84.0936Z" fill="#201C21"/>
<path fill-rule="evenodd" clip-rule="evenodd" d="M70.1982 90.0937C70.1982 91.5313 70.1982 92.9687 70.1982 94.4062C68.8313 94.4062 67.4645 94.4062 66.0976 94.4062C66.0976 92.9062 66.0976 91.4062 66.0976 89.9062C66.1435 89.7943 66.2411 89.7319 66.3905 89.7188C67.6681 89.8402 68.9374 89.9651 70.1982 90.0937Z" fill="#140F11"/>
<path fill-rule="evenodd" clip-rule="evenodd" d="M65.5118 89.9062C65.7071 89.9062 65.9023 89.9062 66.0976 89.9062C66.0976 91.4062 66.0976 92.9062 66.0976 94.4062C67.4645 94.4062 68.8313 94.4062 70.1982 94.4062C70.1982 92.9687 70.1982 91.5313 70.1982 90.0938C70.5237 90.0938 70.849 90.0938 71.1745 90.0938C71.1111 91.566 71.1761 93.0034 71.3698 94.4062C72.2126 94.6734 72.3426 95.1422 71.7603 95.8125C70.6092 96.0233 69.4376 96.117 68.2455 96.0938C67.2042 96.0624 66.1626 96.0313 65.1213 96C64.6825 95.6259 64.4873 95.1572 64.5355 94.5938C64.8633 94.6341 65.0586 94.509 65.1213 94.2188C65.1959 92.7489 65.3261 91.3116 65.5118 89.9062Z" fill="#CEB580"/>
<path fill-rule="evenodd" clip-rule="evenodd" d="M69.6125 92.9062C69.6125 92.2187 69.6125 91.5313 69.6125 90.8438C68.7012 90.8438 67.79 90.8438 66.8787 90.8438C66.8787 91.5313 66.8787 92.2187 66.8787 92.9062C67.7248 92.9062 68.5711 92.9062 69.4172 92.9062C68.5444 93.0911 67.6331 93.1536 66.6835 93.0938C66.6835 92.2813 66.6835 91.4687 66.6835 90.6562C67.7248 90.6562 68.7664 90.6562 69.8077 90.6562C69.8696 91.4441 69.8044 92.1941 69.6125 92.9062Z" fill="#82291F"/>
<path fill-rule="evenodd" clip-rule="evenodd" d="M69.6125 92.9062C69.5474 92.9062 69.4822 92.9062 69.4172 92.9062C68.5711 92.9062 67.7248 92.9062 66.8787 92.9062C66.8787 92.2187 66.8787 91.5313 66.8787 90.8438C67.79 90.8438 68.7011 90.8438 69.6125 90.8438C69.6125 91.5313 69.6125 92.2187 69.6125 92.9062Z" fill="#B13422"/>
<path fill-rule="evenodd" clip-rule="evenodd" d="M85.6243 85.2188C86.3618 85.6352 86.6873 86.2601 86.6006 87.0938C82.3032 90.4429 77.3563 92.3179 71.7604 92.7188C71.7024 91.9187 71.7674 91.1374 71.9556 90.375C76.9591 89.6198 81.5155 87.9011 85.6243 85.2188Z" fill="#B43626"/>
<path fill-rule="evenodd" clip-rule="evenodd" d="M52.8195 86.1562C56.3821 88.4582 60.2875 89.8644 64.5355 90.375C65.2804 92.4097 64.5644 93.0973 62.3875 92.4375C58.5797 91.7749 55.1951 90.306 52.2337 88.0312C52.4452 88.0386 52.6404 88.1012 52.8195 88.2188C52.8845 88.0937 52.9497 87.9688 53.0148 87.8438C52.8582 87.2908 52.7929 86.7283 52.8195 86.1562Z" fill="#7D261C"/>
<path fill-rule="evenodd" clip-rule="evenodd" d="M52.8196 86.1563C52.793 86.7284 52.8582 87.2909 53.0148 87.8438C52.9498 87.9689 52.8846 88.0938 52.8196 88.2188C52.6405 88.1013 52.4452 88.0386 52.2338 88.0313C49.7826 86.3864 47.9275 84.2613 46.6687 81.6563C46.5384 81.2813 46.5384 80.9063 46.6687 80.5313C46.7513 80.2583 46.9139 80.1646 47.1568 80.2501C47.9053 81.2189 48.6539 82.1875 49.4024 83.1563C50.4525 84.2588 51.5915 85.2589 52.8196 86.1563Z" fill="#942E20"/>
<path fill-rule="evenodd" clip-rule="evenodd" d="M86.6006 87.0938C86.6873 86.2602 86.3618 85.6352 85.6243 85.2188C87.7419 83.6539 89.5644 81.8102 91.0917 79.6875C91.222 79.5625 91.352 79.5625 91.4823 79.6875C92.0241 80.1338 92.1544 80.665 91.8728 81.2813C90.4581 83.514 88.7007 85.4515 86.6006 87.0938Z" fill="#80261C"/>
<path fill-rule="evenodd" clip-rule="evenodd" d="M71.1745 90.0938C70.849 90.0938 70.5237 90.0938 70.1982 90.0938C68.9374 89.9651 67.6681 89.8403 66.3905 89.7188C66.2411 89.7319 66.1435 89.7943 66.0976 89.9062C65.9024 89.9062 65.7071 89.9062 65.5118 89.9062C65.455 89.6908 65.2923 89.5658 65.0237 89.5312C60.0949 88.8973 55.7014 87.1161 51.8432 84.1875C50.9805 83.4849 50.2646 82.6725 49.6953 81.75C49.8825 81.4755 50.1428 81.3193 50.4763 81.2812C52.238 82.851 54.0604 84.3823 55.9438 85.875C56.3868 86.0171 56.81 85.9858 57.213 85.7812C57.3259 84.9457 57.2282 84.1333 56.9201 83.3438C57.1255 83.3158 57.3208 83.3469 57.5059 83.4375C59.1573 84.8859 60.9147 86.1984 62.7781 87.375C63.6111 87.9021 64.5224 88.1833 65.5118 88.2188C65.544 87.5906 65.5114 86.9657 65.4142 86.3438C65.0723 86.0227 64.942 85.6477 65.0237 85.2188C66.2036 86.4146 67.4403 87.5396 68.7337 88.5938C70.215 87.5473 71.5819 86.3599 72.8343 85.0312C72.9645 85.2812 72.9645 85.5313 72.8343 85.7812C71.6535 87.6414 72.1417 88.3601 74.2988 87.9375C76.6096 86.7527 78.6925 85.2838 80.5473 83.5312C80.7084 83.3651 80.9037 83.3027 81.1331 83.3438C81.1009 84.0341 81.1333 84.7215 81.2308 85.4062C81.5352 85.7282 81.6978 86.1032 81.7189 86.5312C78.6015 87.9144 75.3472 88.9457 71.9556 89.625C71.6498 89.739 71.3893 89.8954 71.1745 90.0938Z" fill="#1E1B21"/>
<path fill-rule="evenodd" clip-rule="evenodd" d="M87.1864 61.4064C90.2272 65.1625 91.1059 69.3502 89.8225 73.9689C88.2482 76.9473 86.2629 79.6347 83.8668 82.0314C83.8018 81.8439 83.7366 81.6564 83.6716 81.4689C84.2966 79.4542 84.5569 77.3917 84.4526 75.2814C84.5745 73.5925 84.3468 71.9675 83.7692 70.4064C83.754 76.3201 81.1829 80.8825 76.0562 84.0939C75.9912 83.875 75.9259 83.6564 75.8609 83.4376C76.3924 82.0107 76.6203 80.542 76.5444 79.0314C76.3395 78.8407 76.1116 78.8094 75.8609 78.9376C73.488 81.091 71.1122 83.2473 68.7337 85.4064C66.4905 83.2524 64.2449 81.0961 61.997 78.9376C61.3296 78.8159 61.0693 79.0972 61.216 79.7814C61.5415 81.1563 61.8668 82.5314 62.1923 83.9064C62.0946 83.9688 61.997 84.0314 61.8994 84.0939C56.6434 80.9382 54.1049 76.3756 54.284 70.4064C54.1538 70.5314 54.0237 70.6563 53.8935 70.7814C53.7044 72.1184 53.6068 73.4622 53.6006 74.8126C53.7341 77.1725 53.962 79.5162 54.284 81.8439C51.7563 79.3629 49.6083 76.6128 47.8402 73.5939C46.9943 70.9587 47.0593 68.3337 48.0355 65.7189C48.6523 64.1577 49.466 62.7202 50.4763 61.4064C55.3111 56.6999 61.2017 54.2624 68.1479 54.0939C75.5674 54.0601 81.9136 56.4976 87.1864 61.4064Z" fill="#292728"/>
<path fill-rule="evenodd" clip-rule="evenodd" d="M57.3106 61.4062C57.5592 61.5144 57.5592 61.6393 57.3106 61.7812C53.5205 63.9829 50.5265 66.9204 48.3284 70.5938C48.1075 70.2986 48.0749 69.9861 48.2308 69.6562C49.2858 66.5811 51.271 64.2373 54.1864 62.625C55.2037 62.1233 56.2453 61.7169 57.3106 61.4062Z" fill="#5D5B58"/>
<path fill-rule="evenodd" clip-rule="evenodd" d="M79.571 61.4062C84.2728 62.4521 87.4947 65.1396 89.2367 69.4688C89.3925 69.7986 89.3599 70.1111 89.139 70.4063C87.4697 68.5449 85.7773 66.7011 84.0621 64.875C82.5763 63.663 81.0792 62.5067 79.571 61.4062Z" fill="#5E5B57"/>
<path fill-rule="evenodd" clip-rule="evenodd" d="M66.2929 55.7812C69.4189 55.4669 72.2829 56.1232 74.8846 57.7499C75.8561 58.4943 76.6047 59.4005 77.1302 60.4686C77.2409 61.8203 76.7527 62.9453 75.6657 63.8437C74.029 65.348 72.0763 66.1917 69.8077 66.3749C69.7392 69.2354 71.106 71.2355 73.9083 72.3749C74.4111 72.5545 74.9317 72.6483 75.4704 72.6562C76.4542 72.4748 77.4305 72.3187 78.3994 72.1874C77.684 73.2828 76.6426 73.7515 75.2752 73.5937C73.682 73.6833 72.2501 73.2772 70.9793 72.3749C70.2912 71.5898 69.6078 70.8087 68.929 70.0312C68.0527 70.8727 67.174 71.7164 66.2929 72.5624C64.3244 73.9139 62.2415 74.1014 60.0444 73.1249C58.9294 72.1471 58.9945 71.897 60.2397 72.3749C64.1817 73.0268 66.7526 71.4955 67.9527 67.7812C68.1028 67.2938 68.0702 66.8251 67.855 66.3749C64.1907 66.2118 61.522 64.5867 59.8491 61.4999C60.4281 59.5694 61.5997 58.0694 63.3639 56.9999C64.3578 56.584 65.3342 56.1779 66.2929 55.7812Z" fill="#080810"/>
<path fill-rule="evenodd" clip-rule="evenodd" d="M87.1864 61.4062C81.9136 56.4974 75.5674 54.0599 68.1479 54.0937C61.2017 54.2622 55.3111 56.6997 50.4763 61.4062C53.8831 56.923 58.4393 54.0792 64.145 52.8749C71.8884 51.6237 78.7227 53.4363 84.6479 58.3124C85.6151 59.27 86.4611 60.3012 87.1864 61.4062Z" fill="#696862"/>
<path fill-rule="evenodd" clip-rule="evenodd" d="M66.8787 57.2812C69.8754 56.8743 72.4791 57.6243 74.6893 59.5312C73.836 59.6568 72.9899 59.563 72.1509 59.2499C68.9296 58.7155 65.7727 58.9342 62.6805 59.9062C62.5828 59.8437 62.4852 59.7811 62.3876 59.7187C63.6322 58.4652 65.1291 57.6528 66.8787 57.2812Z" fill="#F0F1F3"/>
<path fill-rule="evenodd" clip-rule="evenodd" d="M43.8373 24.2812C43.6653 27.5906 43.6002 30.9032 43.642 34.2188C43.4153 31.3761 43.3827 28.5011 43.5444 25.5938C43.5807 25.1183 43.6784 24.6808 43.8373 24.2812Z" fill="#A2533A"/>
<path fill-rule="evenodd" clip-rule="evenodd" d="M43.642 34.2188C43.6002 30.9033 43.6653 27.5907 43.8373 24.2813C43.9568 22.1877 44.2823 20.1252 44.8136 18.0939C45.2475 18.0335 45.6056 18.1585 45.8876 18.4689C47.8393 20.9971 49.499 23.6845 50.8669 26.5313C50.4652 26.9168 50.1399 27.3545 49.8905 27.8438C50.0641 28.2935 50.357 28.6685 50.7692 28.9688C50.8636 29.1466 50.896 29.3341 50.8669 29.5313C49.7355 29.8508 48.6289 30.2572 47.5473 30.7501C46.1983 31.8907 44.8964 33.0468 43.642 34.2188Z" fill="#CA623F"/>
<path fill-rule="evenodd" clip-rule="evenodd" d="M45.0089 21.2812C45.4174 21.2927 45.7103 21.4802 45.8876 21.8438C47.0998 23.985 48.0435 26.235 48.719 28.5938C48.3698 29.0233 47.9793 29.4294 47.5474 29.8125C46.7103 30.4329 45.7991 30.9017 44.8136 31.2188C44.7953 27.9043 44.8605 24.5918 45.0089 21.2812Z" fill="#DB8354"/>
<path fill-rule="evenodd" clip-rule="evenodd" d="M40.713 98.1562C41.0499 98.2206 41.1475 98.4081 41.0059 98.7188C39 101.488 36.7544 104.05 34.2692 106.406C34.2042 106.344 34.139 106.281 34.074 106.219C34.5971 104.898 35.1177 103.586 35.6361 102.281C36.645 100.906 37.8817 99.75 39.3462 98.8125C39.8121 98.5888 40.2678 98.37 40.713 98.1562Z" fill="#63645C"/>
<path fill-rule="evenodd" clip-rule="evenodd" d="M58.6775 105.469C57.7404 107.561 57.1871 109.748 57.0178 112.031C56.9369 112.117 56.8393 112.18 56.7249 112.219C54.7554 109.871 53.5838 107.184 53.2101 104.156C53.0375 102.34 53.2977 100.59 53.9911 98.9062C53.9782 100.508 54.0107 102.133 54.0888 103.781C54.3707 105.929 55.0542 107.929 56.1391 109.781C56.5665 108.52 57.0547 107.27 57.6036 106.031C57.8187 105.679 58.079 105.366 58.3846 105.094C58.5857 105.157 58.6834 105.282 58.6775 105.469Z" fill="#5D5A56"/>
<path fill-rule="evenodd" clip-rule="evenodd" d="M97.7307 97.9688C101.201 99.8014 103.805 102.426 105.541 105.844C105.485 106.059 105.322 106.184 105.053 106.219C104.891 106.187 104.728 106.156 104.565 106.125C103.868 105.41 103.217 104.66 102.612 103.875C101.09 102.726 99.6258 101.507 98.2189 100.219C97.768 99.6653 97.4751 99.0401 97.3402 98.3438C97.3884 98.1163 97.5187 97.9912 97.7307 97.9688Z" fill="#56544F"/>
<path fill-rule="evenodd" clip-rule="evenodd" d="M41.8846 101.531C39.2038 105.887 37.902 110.637 37.9793 115.781C37.8167 119.776 38.4025 123.651 39.7367 127.406C39.3837 127.408 39.0582 127.314 38.7604 127.125C34.8359 122.974 33.6643 118.193 35.2456 112.781C35.1806 112.656 35.1153 112.531 35.0503 112.406C34.141 113.311 33.2623 114.248 32.4142 115.219C31.7958 116.281 31.1776 117.344 30.5592 118.406C30.2003 116.604 30.3632 114.854 31.0474 113.156C32.3621 110.829 34.0545 108.766 36.1243 106.969C36.2186 106.791 36.251 106.603 36.2219 106.406C34.7453 106.991 33.3785 107.772 32.1213 108.75C31.7999 109.013 31.4744 109.044 31.145 108.844C32.5011 106.548 33.998 104.36 35.6361 102.281C35.1177 103.586 34.5971 104.898 34.074 106.219C34.139 106.281 34.2042 106.344 34.2693 106.406C36.7544 104.05 39 101.488 41.0059 98.7187C41.1475 98.408 41.0499 98.2205 40.713 98.1562C40.9927 97.7537 41.3506 97.6912 41.787 97.9687C41.8846 99.1547 41.9171 100.342 41.8846 101.531Z" fill="#3E3C38"/>
<path fill-rule="evenodd" clip-rule="evenodd" d="M97.7307 97.9687C97.5187 97.9912 97.3884 98.1163 97.3402 98.3437C97.4751 99.0401 97.768 99.6652 98.2189 100.219C99.6258 101.507 101.09 102.726 102.612 103.875C103.217 104.66 103.868 105.41 104.565 106.125C104.728 106.156 104.891 106.187 105.053 106.219C105.322 106.184 105.485 106.059 105.541 105.844C106.187 106.749 106.805 107.686 107.396 108.656C107.543 108.869 107.51 109.057 107.299 109.219C105.693 108.456 104.163 107.581 102.71 106.594C102.612 106.687 102.515 106.781 102.417 106.875C104.722 108.899 106.577 111.243 107.982 113.906C108.591 115.368 108.754 116.868 108.47 118.406C107.068 116.338 105.473 114.401 103.686 112.594C104.066 114.121 104.294 115.683 104.37 117.281C104.55 121.308 103.118 124.683 100.074 127.406C99.9679 127.395 99.9029 127.333 99.8787 127.219C100.968 123.923 101.326 120.548 100.953 117.094C100.543 119.037 99.5993 120.693 98.1213 122.062C97.6798 122.101 97.6146 121.945 97.926 121.594C98.4714 119.276 98.7317 116.901 98.7071 114.469C98.7659 112.419 98.5706 110.419 98.1213 108.469C97.8985 106.942 97.5406 105.442 97.0473 103.969C96.9692 101.905 97.0018 99.8428 97.1449 97.7812C97.397 97.7368 97.5923 97.7992 97.7307 97.9687Z" fill="#3E3C38"/>
<path fill-rule="evenodd" clip-rule="evenodd" d="M51.2574 108.469C51.3206 109.229 51.2556 109.979 51.0621 110.719C50.5907 110.454 50.2652 110.079 50.0858 109.594C49.6794 106.825 50.2326 104.263 51.7455 101.906C51.5181 102.756 51.3228 103.631 51.1598 104.531C50.9994 105.877 51.0319 107.19 51.2574 108.469Z" fill="#64615C"/>
<path fill-rule="evenodd" clip-rule="evenodd" d="M85.6243 103.969C85.1761 107.575 83.8419 110.825 81.6213 113.719C81.1189 111.423 80.6307 109.11 80.1568 106.781C80.1568 106.594 80.1568 106.406 80.1568 106.219C80.4149 106.187 80.6428 106.249 80.8402 106.406C81.5367 107.844 82.0249 109.344 82.3047 110.906C82.7181 110.123 83.0762 109.311 83.3787 108.469C84.2656 105.41 84.7538 102.285 84.8432 99.0938C85.3587 100.679 85.6192 102.304 85.6243 103.969Z" fill="#615F59"/>
<path fill-rule="evenodd" clip-rule="evenodd" d="M41.8846 101.531C42.2548 103.445 42.0271 105.32 41.2012 107.156C41.1037 107.841 41.0713 108.528 41.1035 109.219C41.9814 109.23 42.8275 109.137 43.642 108.937C43.9792 109.482 44.1093 110.076 44.0325 110.719C43.3589 112.384 43.0333 114.134 43.0562 115.969C43.1044 118.167 43.4297 120.324 44.0325 122.437C43.9675 122.656 43.9023 122.875 43.8373 123.094C42.1451 122.125 40.8108 120.812 39.8343 119.156C39.2532 117.976 38.635 116.851 37.9793 115.781C37.9019 110.637 39.2038 105.887 41.8846 101.531Z" fill="#1F1C20"/>
<path fill-rule="evenodd" clip-rule="evenodd" d="M58.4823 133.594C58.8373 133.89 59.0325 133.796 59.0681 133.312C57.3171 126.972 56.4708 120.504 56.5296 113.906C57.0775 114.219 57.5657 114.157 57.9941 113.719C57.9793 111.925 58.2397 110.176 58.7752 108.469C59.2661 109.828 59.559 111.234 59.6539 112.687C59.1856 119.011 59.5435 125.292 60.7278 131.531C61.0867 133.892 60.7612 136.142 59.7515 138.281C59.2254 138.832 58.6723 139.363 58.0917 139.875C57.8965 140 57.7012 140 57.5059 139.875C57.2831 138.797 57.2507 137.703 57.4083 136.594C57.7186 135.564 58.0765 134.564 58.4823 133.594Z" fill="#1F1C21"/>
<path fill-rule="evenodd" clip-rule="evenodd" d="M94.8018 109.219C94.7699 109.661 94.8024 110.098 94.8994 110.531C96.3323 113.034 96.8857 115.721 96.5592 118.594C96.9401 118.543 97.233 118.667 97.4379 118.969C97.5054 119.864 97.6681 120.739 97.926 121.594C97.6146 121.945 97.6798 122.101 98.1213 122.062C99.5993 120.693 100.543 119.037 100.953 117.094C101.326 120.548 100.968 123.923 99.8787 127.219C99.9029 127.333 99.9679 127.395 100.074 127.406C98.8008 127.965 97.4992 128.496 96.1686 129C95.7176 129.093 95.262 129.124 94.8018 129.094C94.5302 128.092 94.2373 127.092 93.9231 126.094C93.8905 125.156 93.858 124.219 93.8254 123.281C94.2216 118.573 94.5471 113.886 94.8018 109.219Z" fill="#130E15"/>
<path fill-rule="evenodd" clip-rule="evenodd" d="M50.8669 112.219C50.7405 112.364 50.6755 112.551 50.6716 112.781C50.8466 113.852 51.0418 114.914 51.2574 115.969C49.4975 115.438 48.163 114.376 47.2545 112.781C47.0818 112.137 46.854 111.512 46.571 110.906C46.3896 111.129 46.3246 111.379 46.3758 111.656C46.15 110.189 46.1174 108.689 46.2781 107.156C46.4373 106.758 46.6325 106.383 46.8639 106.031C47.3322 107.44 47.918 108.815 48.6213 110.156C49.3542 110.892 50.1026 111.579 50.8669 112.219Z" fill="#201D22"/>
<path fill-rule="evenodd" clip-rule="evenodd" d="M92.4585 107.719C92.2641 107.703 92.1014 107.765 91.9704 107.906C91.3986 111.423 90.0318 114.611 87.8698 117.469C87.6273 117.726 87.3344 117.913 86.9911 118.031C86.7841 116.533 86.7841 115.033 86.9911 113.531C86.7958 113.531 86.6006 113.531 86.4053 113.531C86.0804 115.529 85.2343 117.279 83.8668 118.781C83.7143 118.551 83.6167 118.301 83.5739 118.031C83.4763 116.845 83.4439 115.658 83.4763 114.469C83.281 114.469 83.0858 114.469 82.8905 114.469C83.4402 113.414 84.091 112.414 84.8432 111.469C85.2472 110.461 85.6703 109.461 86.1124 108.469C86.21 110.03 86.2424 111.592 86.21 113.156C86.8532 113.201 87.439 113.045 87.9674 112.687C90.1376 110.724 91.4719 108.317 91.9704 105.469C92.3867 106.164 92.5493 106.914 92.4585 107.719Z" fill="#1F1C22"/>
<path fill-rule="evenodd" clip-rule="evenodd" d="M92.4586 107.719C92.6847 109.436 92.7171 111.186 92.5562 112.969C91.9438 117.201 91.6834 121.451 91.7751 125.719C92.0141 127.075 92.4047 128.387 92.9467 129.656C94.0879 131.348 95.3247 132.973 96.6568 134.531C97.3281 135.521 97.2957 136.458 96.5592 137.344C95.8498 134.569 94.1248 132.632 91.3846 131.531C91.2544 131.656 91.2544 131.781 91.3846 131.906C92.9364 133.324 94.0428 135.011 94.7041 136.969C94.8344 137.719 94.8344 138.469 94.7041 139.219C93.4509 140.641 92.8327 140.453 92.8491 138.656C93.9361 138.796 94.2941 138.359 93.9231 137.344C93.5481 136.078 92.7347 135.203 91.4822 134.719C90.5559 133.548 89.4167 132.611 88.0651 131.906C87.9674 131.969 87.8698 132.031 87.7722 132.094C89.8475 134.268 91.0191 136.83 91.287 139.781C91.2219 140.156 91.1567 140.531 91.0917 140.906C90.2509 141.059 89.4048 141.184 88.5532 141.281C88.5726 139.286 88.2473 137.349 87.5769 135.469C87.8792 135.529 88.0094 135.716 87.9674 136.031C88.1627 136.031 88.358 136.031 88.5532 136.031C88.4827 137.434 88.6454 138.809 89.0414 140.156C89.4478 140.312 89.8709 140.312 90.3106 140.156C90.567 137.838 89.7207 136.026 87.7722 134.719C87.5353 134.765 87.4051 134.89 87.3816 135.094C86.9091 134.419 86.3885 133.763 85.8195 133.125C85.4237 132.773 84.9681 132.554 84.4526 132.469C85.2868 133.885 85.9703 135.385 86.5029 136.969C86.7589 138.395 86.8566 139.832 86.7958 141.281C85.5459 141.262 84.3093 141.137 83.0858 140.906C83.6763 138.222 83.2207 135.722 81.7189 133.406C81.4172 133.228 81.0917 133.165 80.7426 133.219C80.5182 133.164 80.388 133.008 80.3521 132.75C81.0042 129.804 81.5576 126.835 82.0118 123.844C82.4683 120.734 82.696 117.609 82.6952 114.469C82.7603 114.469 82.8255 114.469 82.8905 114.469C83.0858 114.469 83.281 114.469 83.4763 114.469C83.4439 115.658 83.4763 116.845 83.5739 118.031C83.6167 118.301 83.7143 118.551 83.8668 118.781C85.2343 117.279 86.0804 115.529 86.4053 113.531C86.6006 113.531 86.7958 113.531 86.9911 113.531C86.7841 115.033 86.7841 116.533 86.9911 118.031C87.3344 117.914 87.6273 117.726 87.8698 117.469C90.0318 114.611 91.3987 111.423 91.9704 107.906C92.1014 107.765 92.2641 107.703 92.4586 107.719Z" fill="#3E3C38"/>
<path fill-rule="evenodd" clip-rule="evenodd" d="M82.6952 114.469C82.696 117.609 82.4683 120.734 82.0118 123.844C81.5576 126.835 81.0042 129.804 80.3521 132.75C80.388 133.008 80.5182 133.164 80.7426 133.219C80.6366 133.452 80.5713 133.702 80.5473 133.969C81.3684 135.838 81.6287 137.776 81.3284 139.781C81.1595 139.984 80.9642 140.015 80.7426 139.875C78.2705 137.656 77.4568 134.938 78.3018 131.719C78.6456 128.596 78.9711 125.47 79.2781 122.344C79.3542 118.717 79.3542 115.092 79.2781 111.469C79.4083 110.969 79.5384 110.469 79.6686 109.969C79.7336 110.031 79.7989 110.094 79.8639 110.156C80.0855 112.338 80.2156 114.525 80.2544 116.719C80.4491 117.541 80.872 117.666 81.5237 117.094C81.684 116.541 81.7816 115.979 81.8166 115.406C82.0932 115.05 82.3861 114.738 82.6952 114.469Z" fill="#1F1B21"/>
<path fill-rule="evenodd" clip-rule="evenodd" d="M98.1213 108.469C98.5706 110.419 98.7659 112.419 98.7071 114.469C98.7317 116.901 98.4714 119.276 97.9261 121.594C97.6681 120.739 97.5055 119.864 97.4379 118.969C97.2331 118.667 96.9402 118.543 96.5592 118.594C96.8857 115.721 96.3323 113.034 94.8994 110.531C94.8024 110.098 94.77 109.661 94.8018 109.219C95.196 108.725 95.5866 108.756 95.9734 109.312C97.0438 109.88 97.7599 109.599 98.1213 108.469Z" fill="#201C22"/>
<path fill-rule="evenodd" clip-rule="evenodd" d="M55.9438 113.344C55.6526 114.438 55.3922 115.563 55.1627 116.719C54.7611 116.387 54.4031 116.012 54.0888 115.594C53.7537 114.59 53.3307 113.653 52.8195 112.781C52.9021 112.638 52.9673 112.482 53.0148 112.312C52.6065 110.992 52.4436 109.648 52.5266 108.281C53.4707 110.096 54.6099 111.783 55.9438 113.344Z" fill="#1F1C22"/>
<path fill-rule="evenodd" clip-rule="evenodd" d="M73.3225 113.156C72.7388 115.156 71.6649 116.843 70.1006 118.219C66.8848 116 64.9321 113 64.2426 109.219C64.0073 107.79 63.9097 106.353 63.9497 104.906C64.185 104.394 64.4779 103.894 64.8284 103.406C63.9618 108.552 65.4263 112.958 69.2219 116.625C69.4172 116.75 69.6124 116.75 69.8077 116.625C70.9408 115.225 71.8195 113.694 72.4438 112.031C72.8658 110.394 72.8332 108.769 72.3462 107.156C72.4112 107.094 72.4764 107.031 72.5414 106.969C73.2354 108.976 73.4957 111.038 73.3225 113.156Z" fill="#615D59"/>
<path fill-rule="evenodd" clip-rule="evenodd" d="M44.0325 110.719C44.4998 115.154 44.9554 119.591 45.3994 124.031C45.349 125.66 45.0235 127.223 44.4231 128.719C42.7496 128.663 41.1875 128.225 39.7367 127.406C38.4024 123.651 37.8166 119.776 37.9793 115.781C38.635 116.851 39.2532 117.976 39.8343 119.156C40.8108 120.812 42.1451 122.125 43.8373 123.094C43.9023 122.875 43.9675 122.656 44.0325 122.438C43.4297 120.324 43.1044 118.167 43.0562 115.969C43.0333 114.134 43.3589 112.384 44.0325 110.719Z" fill="#130E15"/>
<path fill-rule="evenodd" clip-rule="evenodd" d="M50.8669 112.219C51.4082 112.809 52.059 112.997 52.8195 112.781C53.3307 113.653 53.7537 114.59 54.0888 115.594C54.4032 116.012 54.7611 116.387 55.1627 116.719C55.3922 115.563 55.6527 114.438 55.9438 113.344C56.2041 113.469 56.3994 113.656 56.5296 113.906C56.4708 120.504 57.3171 126.972 59.0681 133.313C59.0325 133.796 58.8373 133.89 58.4823 133.594C58.1722 133.197 57.7816 133.135 57.3107 133.406C55.8325 135.653 55.3443 138.091 55.8462 140.719C54.729 140.986 53.5901 141.173 52.429 141.281C52.2451 141.261 52.0824 141.199 51.9408 141.094C51.7838 138.999 52.1744 136.999 53.1124 135.094C53.6006 134.281 54.0888 133.469 54.5769 132.656C54.2475 132.456 53.922 132.487 53.6006 132.75C51.1729 135.097 50.0663 137.941 50.2811 141.281C49.419 141.318 48.5727 141.224 47.7426 141C47.4232 137.641 48.5622 134.797 51.1598 132.469C51.2771 132.194 51.1795 132.007 50.8669 131.906C48.7273 133.054 47.2628 134.742 46.4734 136.969C46.1828 138.083 45.955 139.208 45.79 140.344C43.9107 139.85 43.3575 138.725 44.1302 136.969C45.0105 134.939 46.3447 133.22 48.1332 131.813C47.2941 131.838 46.513 132.088 45.79 132.563C44.0445 133.927 42.8405 135.646 42.1775 137.719C42.1125 137.656 42.0473 137.594 41.9823 137.531C41.852 136.781 41.852 136.031 41.9823 135.281C43.2087 133.541 44.5106 131.853 45.8876 130.219C46.6191 129.127 47.0748 127.939 47.2545 126.656C47.3056 121.639 47.0127 116.639 46.3758 111.656C46.3246 111.379 46.3896 111.129 46.571 110.906C46.854 111.512 47.0818 112.137 47.2545 112.781C48.163 114.376 49.4975 115.438 51.2574 115.969C51.0418 114.914 50.8466 113.852 50.6716 112.781C50.6755 112.551 50.7405 112.364 50.8669 112.219Z" fill="#3E3C38"/>
<path fill-rule="evenodd" clip-rule="evenodd" d="M61.6065 115.969C62.2626 116.569 62.816 117.257 63.2663 118.031C64.1729 118.792 65.1168 119.479 66.0976 120.094C66.8891 119.998 67.2796 119.56 67.2692 118.781C68.154 119.788 69.228 120.538 70.4911 121.031C71.1107 120.658 71.5989 120.158 71.9556 119.531C72.2388 119.748 72.434 120.029 72.5414 120.375C73.0364 120.491 73.492 120.397 73.9083 120.094C75.1025 119.229 76.0463 118.166 76.7397 116.906C76.9371 116.749 77.1649 116.687 77.4231 116.719C77.4555 118.407 77.4231 120.095 77.3255 121.781C76.7084 126.207 76.2202 130.644 75.861 135.094C71.7647 135.542 67.6641 135.573 63.5592 135.188C63.3965 135.031 63.2337 134.875 63.071 134.719C62.5932 129.777 62.0724 124.84 61.5089 119.906C61.3537 118.579 61.3863 117.266 61.6065 115.969Z" fill="#120E16"/>
<path fill-rule="evenodd" clip-rule="evenodd" d="M65.5118 121.406C65.7172 121.378 65.9125 121.409 66.0976 121.5C66.5993 121.965 67.0548 122.465 67.4645 123C68.4516 123.439 69.4929 123.564 70.5887 123.375C71.0244 122.928 71.545 122.584 72.1509 122.344C72.2712 122.901 72.2061 123.464 71.9556 124.031C72.1183 124.094 72.2811 124.156 72.4438 124.219C73.3404 123.767 74.2191 123.267 75.0799 122.719C75.478 125.046 74.5017 126.578 72.1509 127.312C67.9673 128.536 64.8756 127.317 62.8757 123.656C62.8142 123.118 62.7166 122.586 62.5828 122.062C62.6478 121.969 62.7131 121.875 62.7781 121.781C63.2918 122.868 64.1055 123.681 65.2189 124.219C65.2845 123.275 65.3822 122.338 65.5118 121.406Z" fill="#1F1B21"/>
<path fill-rule="evenodd" clip-rule="evenodd" d="M34.855 125.531C34.9611 125.542 35.0261 125.605 35.0503 125.719C33.8859 125.905 32.7143 125.968 31.5355 125.906C32.6421 125.781 33.7485 125.656 34.855 125.531Z" fill="#868488"/>
<path fill-rule="evenodd" clip-rule="evenodd" d="M31.7308 137.344C32.3997 137.222 33.018 136.972 33.5858 136.594C33.6451 135.698 33.6778 134.76 33.6834 133.781C33.1322 133.916 32.6114 134.103 32.1213 134.344C32.5886 132.884 33.4022 131.633 34.5621 130.594C34.7248 130 34.4971 129.781 33.8787 129.938C31.1381 131.572 29.7062 133.948 29.5828 137.062C28.9013 136.97 28.2829 136.689 27.7278 136.219C27.4511 133.781 28.3298 131.812 30.3639 130.312C31.876 129.399 33.4382 128.587 35.0503 127.875C35.9061 127.877 36.7522 128.001 37.5887 128.25C39.2778 128.75 40.9702 129.25 42.6657 129.75C42.8469 129.823 42.9771 129.948 43.0562 130.125C41.985 131.529 40.911 132.935 39.8343 134.344C39.5213 135.429 39.2936 136.523 39.1509 137.625C38.1279 137.926 37.0865 138.051 36.0266 138C35.878 135.12 36.9194 132.683 39.1509 130.688C38.4139 130.634 37.7631 130.852 37.1982 131.344C35.252 133.207 34.1454 135.457 33.8787 138.094C33.2911 138.192 32.7053 138.098 32.1213 137.812C31.9493 137.68 31.8192 137.523 31.7308 137.344Z" fill="#2A2528"/>
<path fill-rule="evenodd" clip-rule="evenodd" d="M102.417 127.969C105.807 128.455 108.508 130.017 110.521 132.656C110.716 133.344 110.911 134.031 111.107 134.719C111.358 136.092 110.739 136.842 109.251 136.969C109.09 134.315 107.919 132.159 105.737 130.5C105.18 130.232 104.594 130.076 103.979 130.031C104.399 130.906 105.017 131.656 105.834 132.281C106.964 134.004 107.517 135.879 107.494 137.906C106.636 138.017 105.79 138.017 104.956 137.906C104.716 135.428 103.674 133.334 101.831 131.625C101.356 131.319 100.868 131.038 100.367 130.781C100.269 130.844 100.172 130.906 100.074 130.969C101.923 133.082 102.964 135.52 103.198 138.281C101.884 138.163 100.582 137.976 99.2929 137.719C99.2279 137.625 99.1627 137.531 99.0976 137.438C99.6403 136.326 99.6079 135.233 99 134.156C98.2209 132.815 97.2772 131.596 96.1686 130.5C96.2192 130.264 96.3495 130.076 96.5592 129.938C98.512 129.216 100.465 128.559 102.417 127.969Z" fill="#2A2628"/>
<path fill-rule="evenodd" clip-rule="evenodd" d="M106.323 127.969C109.455 127.928 111.831 129.241 113.45 131.906C113.616 132.68 113.551 133.43 113.254 134.156C113.08 134.383 112.917 134.383 112.766 134.156C111.858 130.909 109.71 128.847 106.323 127.969Z" fill="#282528"/>
<path fill-rule="evenodd" clip-rule="evenodd" d="M32.1213 127.594C32.7755 127.563 33.4263 127.594 34.074 127.688C30.0296 128.221 27.2959 130.315 25.8728 133.969C25.7748 134.16 25.6447 134.192 25.4823 134.063C25.1417 133.507 25.0441 132.913 25.1894 132.281C25.8568 130.766 26.9308 129.61 28.4113 128.813C29.6235 128.268 30.8601 127.862 32.1213 127.594Z" fill="#282427"/>
<path fill-rule="evenodd" clip-rule="evenodd" d="M31.7307 137.344C31.4445 136.321 31.5745 135.321 32.1213 134.344C32.6114 134.103 33.1322 133.916 33.6834 133.781C33.6777 134.76 33.6451 135.698 33.5858 136.594C33.0179 136.972 32.3997 137.222 31.7307 137.344Z" fill="#3C3A38"/>
<path fill-rule="evenodd" clip-rule="evenodd" d="M50.6716 134.719C50.8668 134.719 51.0621 134.719 51.2574 134.719C50.7887 136.328 50.1703 137.89 49.4023 139.406C48.7853 139.969 48.3624 139.875 48.1331 139.125C48.2991 137.273 49.1452 135.805 50.6716 134.719Z" fill="#5E5B57"/>
<path fill-rule="evenodd" clip-rule="evenodd" d="M53.9911 136.219C55.0782 136.079 55.4361 136.516 55.0651 137.531C54.8321 138.519 54.3439 139.363 53.6006 140.063C53.2815 140.155 52.956 140.186 52.6242 140.156C52.5803 139.266 52.6779 138.391 52.9171 137.531C53.106 136.946 53.4639 136.509 53.9911 136.219Z" fill="#5E5C57"/>
<path fill-rule="evenodd" clip-rule="evenodd" d="M84.4527 136.594C85.3909 136.712 86.0093 137.212 86.3077 138.094C86.4051 138.841 86.4377 139.591 86.4053 140.344C85.8939 140.394 85.4058 140.332 84.9408 140.156C84.5155 139.006 84.3527 137.818 84.4527 136.594Z" fill="#56544F"/>
<path fill-rule="evenodd" clip-rule="evenodd" d="M91.4822 134.719C92.7347 135.203 93.5482 136.078 93.9231 137.344C94.2941 138.359 93.9362 138.796 92.8491 138.656C92.4836 137.315 92.0278 136.002 91.4822 134.719Z" fill="#5D5A57"/>
<path fill-rule="evenodd" clip-rule="evenodd" d="M87.5769 135.469C87.5119 135.344 87.4467 135.219 87.3817 135.094C87.4051 134.89 87.5353 134.765 87.7722 134.719C89.7207 136.026 90.567 137.838 90.3106 140.156C89.8709 140.312 89.4478 140.312 89.0414 140.156C88.6454 138.809 88.4828 137.434 88.5533 136.031C88.358 136.031 88.1627 136.031 87.9675 136.031C88.0094 135.716 87.8792 135.529 87.5769 135.469Z" fill="#5D5B56"/>
<path fill-rule="evenodd" clip-rule="evenodd" d="M38.1745 139.781C38.0255 139.925 37.8303 140.019 37.5887 140.062C35.992 140.217 34.4299 140.185 32.9023 139.969C34.6652 140.002 36.4226 139.94 38.1745 139.781Z" fill="#A0A0A2"/>
</svg>
